<svg viewBox="0 0 512 512" xmlns="http://www.w3.org/2000/svg" fill="none">
  <rect width="512" height="512" rx="112" fill="#02163B"/>
  <g transform="translate(36, 68) scale(0.74)">
    <!-- Letter A -->
    <path d="M 121 122 L 40 280 L 86 280 L 102 248 L 140 248 L 156 280 L 202 280 L 121 122 Z M 121 168 L 134 222 L 108 222 Z" fill="#FFFFFF" fill-rule="evenodd"/>

    <!-- Tower 1 -->
    <path d="M 210 280 L 210 150 L 228 122 L 228 280 Z" fill="#94A3B8"/>

    <!-- Tower 2 (Spire) -->
    <path d="M 234 280 L 234 24 L 268 86 L 268 280 Z" fill="#0062B8"/>

    <!-- Tower 3 -->
    <path d="M 274 280 L 274 88 L 294 118 L 294 280 Z" fill="#FFFFFF"/>

    <!-- Tower 4 -->
    <path d="M 300 280 L 300 146 L 318 174 L 318 280 Z" fill="#94A3B8"/>

    <!-- Letter D -->
    <path d="M 328 122 L 386 122 C 434 122 458 152 458 201 C 458 250 434 280 386 280 L 328 280 Z M 356 148 L 356 254 L 382 254 C 414 254 430 236 430 201 C 430 166 414 148 382 148 Z" fill="#FFFFFF" fill-rule="evenodd"/>

    <!-- Letter B -->
    <path d="M 466 122 L 518 122 C 544 122 558 136 558 156 C 558 172 548 184 532 192 C 554 198 564 214 564 238 C 564 266 544 280 514 280 L 466 280 Z M 494 146 L 494 184 L 516 184 C 530 184 536 176 536 165 C 536 154 530 146 516 146 Z M 494 210 L 494 256 L 518 256 C 532 256 540 246 540 233 C 540 220 532 210 518 210 Z" fill="#FFFFFF" fill-rule="evenodd"/>

    <!-- Subtitle: SOLUCIONES VERTICAL -->
    <text x="300" y="340" text-anchor="middle" font-family="'Plus Jakarta Sans', system-ui, sans-serif" font-size="26" font-weight="800" letter-spacing="0.32em" fill="#FFFFFF">
      SOLUCIONES VERTICAL
    </text>
  </g>
</svg>